# xmcd
#
# Track frame offsets:
#	150
#	3572
#	8347
#	15332
#	23202
#	35737
#	41765
#	48732
#	69305
#	85600
#	105617
#	123980
#	153480
#	173935
#	187525
#	201375
#
# Disc length: 2910 seconds
#
# Revision: 8
# Processed by: cddbd v1.5.1PL0 Copyright (c) Steve Scherf et al.
# Submitted via: dBpowerAMP V4.0
#
DISCID=bf0b5c10
DTITLE=Bill Engvall - Now That's Awesome
DYEAR=2000
DGENRE=Comedy
TTITLE0=Introduction
TTITLE1=The 90's
TTITLE2=Bar Scene In California
TTITLE3=Now That's Awesome
TTITLE4=The Dog Had To Be Trained
TTITLE5=Pound Puppies
TTITLE6=Smoker Aquarium
TTITLE7=Pads
TTITLE8=When Did Shrapnel Become A Fashion Accessory?
TTITLE9=Too Much Information (Cause I'm The Dad)
TTITLE10=White Trash Road Race
TTITLE11=A Snake In The Toilet
TTITLE12=Surfing Lesson
TTITLE13=People Amaze Me (Here's Your Sign)
TTITLE14=Now That's Awesome (Song) (Featuring Tracy Byrd, Neal McCoy And T. Graham Brown)
TTITLE15=Shoulda Shut Up (Song) (Featuring Julie Reeves)
EXTD=
EXTT0=
EXTT1=
EXTT2=
EXTT3=
EXTT4=
EXTT5=
EXTT6=
EXTT7=
EXTT8=
EXTT9=
EXTT10=
EXTT11=
EXTT12=
EXTT13=
EXTT14=
EXTT15=
PLAYORDER=
